<?xml version="1.0" encoding="UTF-8"?><svg id="Layer_1" xmlns="http://www.w3.org/2000/svg" viewBox="0 0 336.82 350.96"><defs><style>.cls-1{fill:#f26b6d;}.cls-2{fill:#7aa651;}.cls-3{fill:#45606d;}.cls-4{fill:#4a7a72;}.cls-5{fill:#8b5e3c;}.cls-6{fill:#ad2061;}.cls-7{fill:#e52956;}.cls-8{fill:#fabea6;}</style></defs><g id="Lychee"><path id="Stem" class="cls-5" d="M182.08,61.72c-.93-.7-1.11-1.91-1.01-6.66,.14-6.42,.6-10.59,.89-14.43,.65-8.46-.01-8.95,1.06-11.79,1.56-4.13,4.04-6.43,6.55-8.98C202.99,6.25,203.59-.28,208.59,0c2.35,.14,1.92,1.56,11.66,10.15,5.89,5.19,7.9,6.3,8.1,8.99,.25,3.43-2.68,6.5-5.83,9.81-2.76,2.89-3.61,2.84-6.45,5.42-.63,.57-6.36,5.72-9.74,13.59-3.47,8.08-1.96,13.19-5.1,14.37-2.3,.87-3.39-1.77-8.09-2.15-5.82-.48-8.87,3.16-11.05,1.54Z"/><path id="G1" class="cls-6" d="M327.18,188.4c.38-5.88,.71-11.01,.91-15.68,2.94-2.2,6.03-7.88,7.41-12.21,.89-2.8,1.98-6.19,.82-10.09-1.63-5.48-7.12-10.01-11.15-10.56-2.23-8.15-5.43-15.52-9.22-22.12,.6-2.14,.11-5.87-.21-8.29-.52-3.92-.91-6.82-3.36-9.26-4.16-4.14-10.29-3.02-10.63-2.95-.39,.08-.72,.15-1.04,.22-6.8-7.15-13.84-12.77-19.88-16.94,1.19-2.33-.92-9.06-6.53-11.54-4.51-2-10.05-.7-11.36,1.34-2.92-1.28-8.29-3.46-15.12-5.46-15.18-4.44-28.25-4.59-42.17-4.8-1.33-.02-3.83-.05-14.23,.14-24.22,.43-36.4,.11-42.82,1.17-15.56,2.57-42.56,7.04-64.05,29.16-17.95,18.47-23.25,40.2-25.25,48.85-2.62,11.31-2.91,20.82-2.74,29.09,.72,36.39,1.51,75.36,25.56,113.94-1.8,3.23-2.21,9.48-.79,14.32,.56,1.9,1.83,6.26,5.58,8.14,1.4,.7,3.31,.83,7.14,1.1,2.49,.17,4.24,.29,5.39,.26,4.98,5.82,11.01,12.07,18.09,18.01,.18,2.12,.98,4.56,1.86,6.25,3.18,6.09,9.78,7.09,10.79,7.23,1.57,.21,4.35,.31,6.49-.18,9.98,5.6,21.33,10,34.06,12.08,27.97,4.56,51.5-3.88,54.34-4.94,6.49-2.42,11.94-5.24,16.88-8.32,2.42,.89,6.12,.94,9.1,.01,4.23-1.32,7.73-4.84,8.71-9.26,.21-.96,.63-2.88,.4-4.45,.2-.16,.39-.32,.59-.49,3.78-3.17,9.38-7.93,15.75-14.37,5.34,1.46,14.77-.32,19.21-6.08,1.01-1.31,1.49-2.47,1.99-3.71,2.31-5.7,2.5-13.06,1.01-17.4,2-2.99,3.97-6.1,5.87-9.39,2.62-.85,6.4-3.57,10.9-6.83,5.44-3.94,6.41-5.95,6.72-6.66,2.52-5.72-.57-11.57-1.1-12.56-.42-.8-1.49-2.78-2.92-4.24,.06-.19,.14-.37,.2-.56,2.1-6.42,3.62-12.51,4.8-18.3,4.33-.97,10.25-6.22,12.4-12.58,.41-1.22,1.73-5.31,.27-10.22-1.42-4.78-5.23-9.55-8.66-10.88Z"/><g id="Leaf"><path class="cls-4" d="M187.99,23.93c-.07-4.86-28.81-7.93-31.29-8.23C95.95,9.14,52.91,34.94,23.87,73.88c-7.52,10.78-11.76,20.63-13.72,25.25-5.97,14.08-13.21,37.17-8.78,39.52,4.01,2.13,13.11-15.18,36.64-37.04,16.85-15.65,31.69-24.89,48.16-35.14,20.93-13.03,35.76-22.26,57.63-29.64,12.01-4.05,16.31-4.77,16.31-4.77,20.29-5.52,27.91-6.05,27.88-8.13Z"/><path class="cls-3" d="M112.61,15.33c5.67-1.92,12.9-3.5,34.58-2.65,18.76,.73,26.47,2.43,34.12,6.22,4.26,2.11,6.62,3.32,6.68,5.12,.2,6.4-29.11,7.5-60.65,20.03-36.88,14.66-61.77,38.98-63.9,36.32-1.05-1.32,4.76-7.6,9.83-18.76,1.59-3.5,2.28-5.28,3.01-7.92,2.94-21.79,27.63-36.08,36.33-38.37Z"/><path class="cls-2" d="M1.37,138.65c-2.29-2.77,17.07-25.01,40.59-43.46,15.1-12,53.79-35.6,75.2-46.84,7-3.51,24.53-11.99,48.35-17.84,13.33-3.27,20.02-4.86,21.56-2.32,2.11,3.49-7.13,11.8-36.24,39.92-29.51,28.51-31.87,31.41-40.76,36.36-17.91,9.98-36.42,13.8-43.59,15.23-16.87,3.36-22.55,2-37.69,7.14-17.78,6.03-26,13.52-27.42,11.81Z"/></g><path id="Stem2" class="cls-5" d="M185.28,47.86c-2.46-.73-3.17-5.93-3.25-8.15-.05-1.38,.1-2.74,1.56-7.5,2.07-6.76,3.11-10.14,4.39-10.43,2.75-.63,7.85,5.14,8.19,11.3,.45,8.11-7.4,15.8-10.89,14.77Z"/><path id="G2" class="cls-7" d="M251.65,174.79c-2.17-3.92-5.71-2.84-11.8-7.68-4.11-3.27-9.09-9.02-10.29-14.41-3.18-14.33,21.37-21.77,21.64-39.47,.21-13.86-14.57-24.63-20.86-29.09-3.91-2.77-15.19-10.54-31.29-10.8-3.5-.06-13.39,.27-28.9,7.88-21.84,10.7-20.18,19.76-42.45,34.95-22.06,15.05-47.02,21.41-48.45,21.65-9.34,1.54-15.04,1.04-19.59,3.28-1.54-.12-3.04-.01-4.23,.23-6.22,1.25-8.96,6.65-9.33,7.41-2.2,4.53-1.12,8.81-.69,10.43,.95,3.52,3.38,7.82,6.3,9.83,.16,1.68,.36,3.43,.56,5.27,.57,4.99,1.1,9.68,1.63,14.14-2.83,2.03-5.24,6.19-6.02,7.54-1.08,1.87-3.9,6.77-3.02,12.76,1.25,8.48,9.4,15.7,14.33,15.62,1.12,5.63,2.4,10.93,3.93,16.09-1.38,1.67-2.53,4.18-3.43,6.16-1.19,2.61-2.19,4.79-1.92,7.68,.45,4.85,4.11,7.9,5.49,9.06,3.02,2.52,7.76,4.76,10.94,4.57,4.03,8.21,6.68,12.99,11.39,18.17,22.38,24.64,61.81,29.47,67.28,20.21,3.09-5.22-6.17-12.28-2.61-18.25,4.25-7.14,19.15,.12,40.89-7.41,6.02-2.08,17.31-5.99,19.49-14.41,1.83-7.07-4.78-9.54-4.25-16.88,1.01-14.05,25.9-14.3,35.76-35.9,1.51-3.31,.34-2.02,4.99-16.25,4.66-14.26,6.75-18.35,4.53-22.37Z"/><path id="G3" class="cls-1" d="M91.42,134.36c.67-.49,.38-.17,5.45-2.27,6.56-2.71,16.78-6.99,27.74-13.9,2.92-1.84,5.96-3.77,9.76-6.8,6.97-5.54,6.87-7.07,9.97-8.69,8.95-4.67,21.15,2.24,24.94,4.39,4.19,2.37,12.84,7.25,16.33,17.7,.85,2.54,2.98,8.94,.72,15.55-4.96,14.47-25.06,12.58-27.89,23.56-2.71,10.52,14.51,17.1,12.62,31.01-1.23,9.09-9.76,15.08-16.13,19.56-4.55,3.19-13.39,9.22-26.13,8.99-3.54-.06-15.27-.76-24.97-9.33-7.68-6.78-9.76-15.18-13.59-31.7-4-17.25-9.36-40.38,1.18-48.07Z"/><g id="Dots"><rect class="cls-7" x="234.18" y="115.72" width="41.44" height="41.44" rx="9.38" ry="9.38" transform="translate(-21.82 220.21) rotate(-45)"/><rect class="cls-7" x="267.65" y="171.77" width="30.21" height="30.21" rx="7.6" ry="7.6" transform="translate(-49.32 254.68) rotate(-45)"/><rect class="cls-7" x="272.07" y="225.63" width="20.15" height="20.15" rx="4.6" ry="4.6" transform="translate(-84.03 268.54) rotate(-45)"/><rect class="cls-7" x="217.24" y="282.09" width="25.99" height="25.99" rx="5.86" ry="5.86" transform="translate(-141.22 249.23) rotate(-45)"/><rect class="cls-7" x="210.74" y="213.79" width="44.95" height="44.95" rx="7.28" ry="7.28" transform="translate(-98.76 234.11) rotate(-45)"/><rect class="cls-7" x="156.65" y="264.56" width="36.45" height="36.45" rx="7.64" ry="7.64" transform="translate(-148.74 206.49) rotate(-45)"/><rect class="cls-6" x="194.7" y="186.68" width="30.47" height="30.47" rx="7.41" ry="7.41" transform="translate(-81.29 207.59) rotate(-45)"/><rect class="cls-6" x="103.8" y="263.31" width="24.23" height="24.23" rx="6.52" ry="6.52" transform="translate(-160.8 162.64) rotate(-45)"/><rect class="cls-8" x="73.54" y="145.33" width="41.44" height="41.44" rx="8.71" ry="8.71" transform="translate(-89.81 115.29) rotate(-45)"/><rect class="cls-8" x="132.86" y="128.74" width="18.18" height="18.18" rx="4.78" ry="4.78" transform="translate(-55.89 140.74) rotate(-45)"/><rect class="cls-1" x="157.84" y="128.55" width="41.44" height="41.44" rx="8.8" ry="8.8" transform="translate(-53.25 169.98) rotate(-45)"/><rect class="cls-1" x="164.63" y="221.58" width="20.49" height="20.49" rx="5" ry="5" transform="translate(-112.7 191.56) rotate(-45)"/><rect class="cls-1" x="199.69" y="100.51" width="20.49" height="20.49" rx="4.81" ry="4.81" transform="translate(-16.83 180.89) rotate(-45)"/></g></g></svg>